<?xml version="1.0" encoding="iso-8859-1"?>
<!-- Generator: Adobe Illustrator 21.0.0, SVG Export Plug-In . SVG Version: 6.00 Build 0)  -->
<svg version="1.1" id="&#x421;&#x43B;&#x43E;&#x439;_1"
	 xmlns="http://www.w3.org/2000/svg" xmlns:xlink="http://www.w3.org/1999/xlink" x="0px" y="0px" viewBox="0 0 250.944 79.94"
	 style="enable-background:new 0 0 250.944 79.94;" xml:space="preserve">
<g>
	<rect x="50.435" y="53.763" style="fill:#497CBF;" width="7.144" height="25.357"/>
	<path style="fill:#497CBF;" d="M64.372,35.258h7.145V79.12h-7.145V35.258z"/>
	<path style="fill:#497CBF;" d="M90.373,59.853h-4.919V79.12h-7.145V59.853h-2.811v-6.091h2.811v-8.666h7.145v8.666h4.919V59.853z"
		/>
	<path style="fill:#497CBF;" d="M112.45,70.979l6.559,1.055c-1.016,2.422-2.567,4.344-4.656,5.769
		c-2.089,1.425-4.694,2.138-7.817,2.138c-2.07-0.04-3.895-0.343-5.476-0.908c-1.581-0.565-2.997-1.454-4.245-2.664
		c-1.406-1.289-2.422-2.753-3.046-4.393c-0.625-1.64-0.937-3.475-0.937-5.504c0-2.069,0.331-3.934,0.995-5.594
		c0.664-1.658,1.62-3.112,2.87-4.362c1.209-1.21,2.606-2.099,4.187-2.665c1.581-0.564,3.367-0.867,5.358-0.907
		c2.108,0.04,3.991,0.41,5.651,1.112c1.659,0.703,3.074,1.719,4.245,3.045c0.976,1.172,1.728,2.577,2.255,4.217
		c0.527,1.641,0.791,3.553,0.791,5.739v0.585h-18.974c-0.04,0.782,0.048,1.553,0.263,2.314c0.215,0.761,0.536,1.415,0.967,1.961
		c0.507,0.742,1.19,1.328,2.05,1.757c0.858,0.431,1.874,0.645,3.045,0.645c1.288,0,2.439-0.293,3.455-0.878
		C111.005,72.854,111.825,72.034,112.45,70.979z M100.444,63.074h12.006c-0.274-1.444-0.958-2.654-2.05-3.63
		c-1.094-0.977-2.422-1.465-3.982-1.465c-1.444,0-2.743,0.449-3.895,1.348C101.372,60.225,100.679,61.473,100.444,63.074z"/>
	<path style="fill:#497CBF;" d="M124.688,79.12V53.763h7.145v3.807c0.351-0.74,0.809-1.414,1.376-2.02
		c0.565-0.605,1.161-1.104,1.786-1.494c0.547-0.352,1.171-0.615,1.874-0.79c0.703-0.176,1.483-0.282,2.343-0.322
		c0.507,0,1.005,0.05,1.493,0.146c0.487,0.098,1.005,0.244,1.552,0.438l-0.937,6.677c-0.509-0.312-1.017-0.546-1.523-0.702
		c-0.508-0.156-1.112-0.234-1.815-0.234c-1.133,0-2.078,0.186-2.84,0.556c-0.762,0.372-1.396,0.869-1.903,1.493
		c-0.508,0.664-0.869,1.406-1.083,2.226c-0.215,0.819-0.322,1.952-0.322,3.396V79.12H124.688z"/>
	<path style="fill:#45B759;" d="M145.769,35.258h7.145V79.12h-7.145V35.258z"/>
	<path style="fill:#45B759;" d="M179.148,57.042v-3.279h7.144V79.12h-7.144v-3.279c-0.938,1.367-2.06,2.392-3.367,3.074
		c-1.309,0.683-2.782,1.025-4.422,1.025c-3.826,0-6.939-1.298-9.34-3.895c-2.401-2.596-3.602-5.807-3.602-9.633
		c0-3.787,1.171-6.979,3.514-9.575c2.342-2.597,5.367-3.895,9.077-3.895c1.795,0,3.376,0.352,4.743,1.054
		C177.118,54.7,178.25,55.716,179.148,57.042z M172.824,59.268c-2.07,0-3.759,0.693-5.066,2.078
		c-1.308,1.387-1.961,3.074-1.961,5.066c0,2.068,0.653,3.787,1.961,5.152c1.308,1.367,2.996,2.05,5.066,2.05
		c2.029,0,3.698-0.683,5.007-2.05c1.308-1.365,1.98-3.084,2.02-5.152c0-1.992-0.664-3.68-1.99-5.066
		C176.532,59.962,174.853,59.268,172.824,59.268z"/>
	<path style="fill:#45B759;" d="M193.086,79.12V53.763h7.144v3.279c0.898-1.248,2.01-2.244,3.338-2.986
		c1.327-0.74,2.83-1.112,4.509-1.112c1.483,0,2.889,0.273,4.217,0.819c1.327,0.548,2.42,1.309,3.279,2.284
		c0.624,0.82,1.103,1.767,1.435,2.841c0.332,1.074,0.518,2.509,0.557,4.304V79.12h-7.144V65.3c0-1.249-0.117-2.264-0.352-3.045
		c-0.234-0.781-0.566-1.425-0.995-1.933c-0.431-0.39-0.928-0.703-1.493-0.937c-0.566-0.234-1.182-0.351-1.845-0.351
		c-0.977,0-1.836,0.185-2.577,0.556c-0.742,0.372-1.347,0.929-1.815,1.669c-0.43,0.625-0.723,1.299-0.878,2.021
		c-0.156,0.724-0.234,1.689-0.234,2.899V79.12H193.086z"/>
	<path style="fill:#45B759;" d="M243.8,57.042V35.258h7.145V79.12H243.8v-3.279c-0.938,1.367-2.06,2.392-3.367,3.074
		c-1.309,0.683-2.782,1.025-4.422,1.025c-3.826,0-6.939-1.298-9.34-3.895c-2.401-2.596-3.602-5.807-3.602-9.633
		c0-3.787,1.171-6.979,3.514-9.575c2.342-2.597,5.367-3.895,9.077-3.895c1.795,0,3.376,0.352,4.743,1.054
		C241.769,54.7,242.901,55.716,243.8,57.042z M237.476,59.268c-2.07,0-3.759,0.693-5.066,2.078
		c-1.308,1.387-1.961,3.074-1.961,5.066c0,2.068,0.653,3.787,1.961,5.152c1.308,1.367,2.996,2.05,5.066,2.05
		c2.029,0,3.698-0.683,5.007-2.05c1.308-1.365,1.981-3.084,2.02-5.152c0-1.992-0.664-3.68-1.99-5.066
		C241.184,59.962,239.505,59.268,237.476,59.268z"/>
	<g>
		<path style="fill:#42ACE3;" d="M58.15,44.794c0,2.374-1.925,4.299-4.299,4.299c-2.374,0-4.299-1.925-4.299-4.299
			c0-2.374,1.976-7.09,4.455-9.536C56.387,37.703,58.15,42.42,58.15,44.794z"/>
		<path style="fill:#FFFFFF;" d="M53.221,37.703c-0.752,1.167-2.668,7.167-1.584,8.5c1.082,1.333,3.18-0.084,2.215-2.75
			C52.887,40.787,53.221,37.703,53.221,37.703z"/>
	</g>
	<path style="fill:#497CBF;" d="M13.572,79.12c-0.132-3.974,2.235-27.152,2.63-33.111c0.396-5.96,0.846-19.221,1.842-24.238
		c1.315-6.622,4.572-19.822,16.887-20.983c21.198-2,21.234,18.948,22.944,26.893c-2.762,1.325-7.796,0.398-8.322,0.398
		c0-7.958-0.45-17.551-7.439-19.771c-9.311-2.958-14.867,5.563-15.436,11.986c-0.4,4.51-0.983,16.681,0.339,25.778
		c1.495,10.285,3.26,30.532,3.392,33.049C27.095,79.12,20.095,79.12,13.572,79.12z"/>
	<path style="fill:#FFFFFF;" d="M22.615,15.807c-4.767,2.125-5.471,58.438-5.079,61.188c4.142,0,1.767,0.25,4.142,0
		C18.678,54.535,19.24,19.516,22.615,15.807z"/>
	<g>
		<path style="fill:#497CBF;" d="M14.438,65.182c-1.154-2.207-0.748-2.479-7.221-2.381C0.745,62.896-0.562,57.9,1.302,55.49
			c1.865-2.408,13.855,5.221,15.07-10.402C20.201,49.139,14.438,65.182,14.438,65.182z"/>
		<path style="fill:#FFFFFF;" d="M7.335,57.549c0,0.758-3.133,1.371-4,1.371c-0.868,0-1.572-0.614-1.572-1.371
			s0.704-1.37,1.572-1.37C4.203,56.179,7.335,56.793,7.335,57.549z"/>
	</g>
	<g>
		<path style="fill:#497CBF;" d="M27.482,51.289c1.544,2.017,1.103,2.051,7.475,1.052c6.372-0.997,8.578,3.753,7.18,6.393
			c-1.4,2.637-13.804-2.598-12.139,12.992C25.475,68.262,27.482,51.289,27.482,51.289z"/>
		<path style="fill:#FFFFFF;" d="M35.106,54.586c-0.139,0.747,2.841,1.79,3.697,1.911c0.857,0.12,1.664-0.387,1.803-1.134
			c0.139-0.747-0.443-1.452-1.3-1.572C38.45,53.669,35.245,53.839,35.106,54.586z"/>
	</g>
	<path style="fill:#FFFFFF;" d="M49.752,10.419c5.108,2.25,4.723,9.922,6.376,16.726c-0.744,0.213-0.914,0.277-1.535,0.411
		C53.531,20.324,53.468,12.482,49.752,10.419z"/>
	<g>
		<path style="fill:#497CBF;" d="M60.818,28.696c0.005,0.877-0.565,1.593-1.272,1.599l-11.37,0.096
			c-0.708,0.006-1.286-0.701-1.291-1.578l0-0.198c-0.005-0.878,0.565-1.594,1.273-1.6l11.37-0.097
			c0.708-0.006,1.286,0.701,1.289,1.578L60.818,28.696z"/>
		<path style="fill:#FFFFFF;" d="M59.616,28.081c0-0.287-0.234-0.521-0.521-0.521l-6.905-0.004c-0.288,0-0.521,0.233-0.521,0.521
			l0,0c0,0.288,0.233,0.521,0.52,0.521l6.906,0.004C59.382,28.601,59.614,28.369,59.616,28.081L59.616,28.081z"/>
	</g>
</g>
</svg>
