<?xml version="1.0" encoding="iso-8859-1"?>
<!-- Generator: Adobe Illustrator 21.0.0, SVG Export Plug-In . SVG Version: 6.00 Build 0)  -->
<svg version="1.1" id="&#x421;&#x43B;&#x43E;&#x439;_1"
	 xmlns="http://www.w3.org/2000/svg" xmlns:xlink="http://www.w3.org/1999/xlink" x="0px" y="0px" viewBox="0 0 266.164 120.5"
	 style="enable-background:new 0 0 266.164 120.5;" xml:space="preserve">
<path style="fill:#2C2A29;" d="M176.231,119.324h20.094v-5.84h-13.301v-3.926h11.886v-5.41h-11.886v-3.75h13.125v-5.84h-19.918
	 M148.461,119.324h6.793v-13.586l10.578,13.586h6.012V94.558h-6.789v13.09l-10.191-13.09h-6.403V119.324z M137.035,119.324h6.899
	V94.558h-6.899V119.324z M115.102,119.324h18.855v-6.016h-11.992v-18.75h-6.863V119.324z M99.891,111.222h11.601v-5.906H99.891
	V111.222z M82.098,106.445v-5.942h4.492c2.301,0,3.715,0.992,3.715,2.938v0.07c0,1.805-1.344,2.934-3.68,2.934H82.098z
	 M75.235,119.324h6.863v-7.5h3.008l4.988,7.5h7.922l-5.906-8.633c3.078-1.309,5.093-3.821,5.093-7.606v-0.07
	c0-2.441-0.742-4.352-2.195-5.766c-1.66-1.699-4.277-2.691-8.062-2.691H75.235V119.324z"/>
<linearGradient id="SVGID_1_" gradientUnits="userSpaceOnUse" x1="-285.8133" y1="357.0214" x2="-284.8933" y2="357.0214" gradientTransform="matrix(-206.504 0 0 -85.2633 -58823.3516 30476.4414)">
	<stop  offset="0" style="stop-color:#E75325"/>
	<stop  offset="1" style="stop-color:#F7B01A"/>
</linearGradient>
<path style="fill:url(#SVGID_1_);" d="M148.457,71.231L0,71.235l4.114-14.25l148.453,0.007 M182.383,36.805
	c8.457,1.027,9.531,8.902,10.699,15.805l3.153,18.621h-16.91l-3.192-18.606c-1.191-5.914-1.848-9.883-9.125-9.883H8.223L12.332,28.5
	l157.457-0.011c10.844,0.214,13.364-14.207,1.258-14.207H16.407L20.633,0h152.711c25.828,0,30.406,27.758,12.742,35.715
	c-0.64,0.289-2.625,0.82-3.66,0.832L182.383,36.805z"/>
<path style="fill:none;" d="M148.457,71.231L0,71.235l4.114-14.25l148.453,0.007L148.457,71.231z M182.383,36.805
	c8.457,1.027,9.531,8.902,10.699,15.805l3.153,18.621h-16.91l-3.192-18.606c-1.191-5.914-1.848-9.883-9.125-9.883H8.223L12.332,28.5
	l157.457-0.011c10.844,0.214,13.364-14.207,1.258-14.207H16.407L20.633,0h152.711c25.828,0,30.406,27.758,12.742,35.715
	c-0.64,0.289-2.625,0.82-3.66,0.832L182.383,36.805z"/>
<path style="fill:#2C2A29;" d="M250.676,92.778l-1.965,0.078v7.722c0,1.543,0.594,2.188,1.731,2.188c0.484,0,0.883-0.012,1.25-0.027
	l0.211-1.622c-0.594,0-1.227-0.089-1.227-0.722 M244.879,100.235c-0.316,0.515-1.015,1.043-1.769,1.043
	c-0.512,0-0.762-0.25-0.762-0.7c0-0.632,0.566-0.882,1.66-0.882h0.856L244.879,100.235z M247.133,102.555
	c0,0-0.355-0.961-0.355-2.16v-1.66c0-2.309-0.621-3.375-2.981-3.375c-1.515,0-2.558,0.343-2.558,0.343l0.144,1.977
	c0.516-0.438,1.32-0.621,2.125-0.621c0.973,0,1.277,0.488,1.344,1.109c-0.094-0.015-0.543-0.015-0.988-0.015
	c-2.125,0-3.348,0.91-3.348,2.492c0,1.371,0.762,2.254,2.371,2.254c0.883,0,1.781-0.606,2.16-1.133
	c0.028,0.195,0.149,0.75,0.227,1.055L247.133,102.555z M236.231,97.137c0.871,0,1.359,0.488,1.359,1.992
	c0,1.41-0.527,2.149-1.808,2.149c-0.473,0-0.989-0.262-1.278-0.489V97.93C235.164,97.297,235.715,97.137,236.231,97.137z
	 M232.528,92.856v9.871h0.422l0.921-0.367c0.371,0.195,1.106,0.566,2.176,0.566c2.133,0,3.57-1.398,3.57-3.93
	c0-2.742-1.5-3.648-2.937-3.648c-0.832,0-1.609,0.312-2.176,0.777v-3.347L232.528,92.856z M225.961,99.09
	c0-1.344,0.582-2.121,1.582-2.121c1.032,0,1.492,0.723,1.492,2.133c0,1.265-0.488,2.164-1.531,2.164
	C226.555,101.266,225.961,100.5,225.961,99.09z M223.985,99.102c0,2.308,1.082,3.847,3.519,3.847c2.348,0,3.52-1.66,3.52-3.847
	c0-2.215-0.895-3.809-3.442-3.809C225.422,95.293,223.985,96.821,223.985,99.102z M221.942,92.778l-1.965,0.078v7.722
	c0,1.543,0.594,2.188,1.73,2.188c0.485,0,0.883-0.012,1.25-0.027l0.211-1.622c-0.593,0-1.226-0.089-1.226-0.722V92.778z
	 M216.168,100.528c-0.422,0.339-0.894,0.433-1.343,0.433c-0.938,0-1.61-0.527-1.61-1.91c0-1.465,0.777-2.031,1.621-2.031
	c0.477,0,0.938,0.133,1.332,0.344V100.528z M217.684,95.477l-1.106,0.293c-0.355-0.199-1.027-0.41-1.843-0.41
	c-2.153,0-3.469,1.527-3.469,3.769c0,2.387,1.41,3.52,3.215,3.52c0.515,0,1.254-0.266,1.687-0.621
	c-0.011,1.148-0.367,1.875-2.109,1.875c-1.223,0-2.438-0.782-2.438-0.782l0.172,2.098c0,0,1.094,0.395,2.41,0.395
	c2.704,0,3.942-1.278,3.942-4.125v-6.012H217.684z"/>
<path style="fill:#2C2A29;" d="M259.09,115.465c0,0-0.816,0.606-2.07,0.606c-1.25,0-1.766-0.989-1.766-2.043
	c0-1.266,0.594-2.11,1.871-2.11c0.739,0,1.188,0.184,1.832,0.832l0.239-2.164c-0.7-0.25-1.266-0.383-2.082-0.383
	c-2.161,0-3.836,1.411-3.836,3.797c0,2.692,1.593,3.731,3.664,3.731c0.738,0,1.437-0.133,2.254-0.5 M249.614,108.782
	c0,0.632,0.511,1.171,1.171,1.171c0.661,0,1.176-0.539,1.176-1.171c0-0.633-0.515-1.149-1.176-1.149
	C250.125,107.633,249.614,108.149,249.614,108.782z M249.797,117.614h1.992v-7h-1.992V117.614z M248.348,112.035v-1.605h-2.793
	v-1.926h-0.898c0,0-1.028,1.977-2.266,2.875v0.645h1.184c0,0-0.012,2.332-0.012,3.058c0,1.844,0.804,2.688,2.437,2.688
	c0.793,0,1.649-0.184,2.254-0.446l0.082-1.925c0,0-0.886,0.644-1.886,0.644c-0.606,0-0.895-0.422-0.895-1.277v-2.742
	L248.348,112.035z M241.375,110.508c0,0-1.015-0.305-2.109-0.305c-2.031,0-3.043,0.883-3.043,2.176c0,1.16,0.578,1.754,1.777,2.164
	c0.938,0.317,1.86,0.434,1.86,0.949c0,0.434-0.383,0.618-1.121,0.618c-1.332,0-2.411-0.766-2.411-0.766l-0.082,2.004
	c0.543,0.199,1.493,0.383,2.532,0.383c2.121,0,3.086-0.895,3.086-2.321c0-1.211-0.977-1.738-1.704-1.949c-1.75-0.5-2-0.672-2-1.094
	c0-0.316,0.317-0.527,0.778-0.527c1.117,0,1.793,0.238,2.304,0.645L241.375,110.508z M232.492,108.782
	c0,0.632,0.512,1.171,1.172,1.171c0.661,0,1.172-0.539,1.172-1.171c0-0.633-0.511-1.149-1.172-1.149
	C233.004,107.633,232.492,108.149,232.492,108.782z M232.676,117.614h1.988v-7h-1.988V117.614z M228.746,115.41
	c-0.421,0.344-0.894,0.438-1.343,0.438c-0.934,0-1.61-0.527-1.61-1.914c0-1.461,0.778-2.027,1.621-2.027
	c0.477,0,0.938,0.128,1.332,0.339V115.41z M230.262,110.364l-1.105,0.289c-0.356-0.196-1.028-0.407-1.844-0.407
	c-2.153,0-3.469,1.528-3.469,3.77c0,2.383,1.41,3.519,3.215,3.519c0.516,0,1.254-0.265,1.687-0.621
	c-0.011,1.149-0.367,1.871-2.109,1.871c-1.223,0-2.437-0.777-2.437-0.777l0.171,2.098c0,0,1.094,0.394,2.411,0.394
	c2.703,0,3.941-1.281,3.941-4.125v-6.011H230.262z M217.782,113.973c0-1.344,0.578-2.121,1.582-2.121
	c1.027,0,1.488,0.726,1.488,2.137c0,1.265-0.488,2.16-1.527,2.16C218.375,116.149,217.782,115.383,217.782,113.973z
	 M215.805,113.989c0,2.304,1.078,3.847,3.52,3.847c2.343,0,3.519-1.66,3.519-3.847c0-2.215-0.898-3.809-3.441-3.809
	C217.239,110.18,215.805,111.707,215.805,113.989z M213.762,107.66l-1.965,0.079v7.726c0,1.543,0.594,2.188,1.727,2.188
	c0.488,0,0.883-0.012,1.25-0.028l0.211-1.621c-0.59,0-1.223-0.094-1.223-0.722V107.66z M265.676,110.508
	c0,0-1.016-0.305-2.109-0.305c-2.028,0-3.043,0.883-3.043,2.176c0,1.16,0.578,1.754,1.777,2.164
	c0.938,0.317,1.859,0.434,1.859,0.949c0,0.434-0.382,0.618-1.121,0.618c-1.332,0-2.41-0.766-2.41-0.766l-0.082,2.004
	c0.543,0.199,1.492,0.383,2.531,0.383c2.125,0,3.086-0.895,3.086-2.321c0-1.211-0.976-1.738-1.699-1.949
	c-1.754-0.5-2.004-0.672-2.004-1.094c0-0.316,0.317-0.527,0.778-0.527c1.121,0,1.793,0.238,2.304,0.645L265.676,110.508z"/>
</svg>
